<?xml version="1.0" standalone="no"?>
<!DOCTYPE svg PUBLIC "-//W3C//DTD SVG 20010904//EN"
 "http://www.w3.org/TR/2001/REC-SVG-20010904/DTD/svg10.dtd">
<svg version="1.0" xmlns="http://www.w3.org/2000/svg"
 width="600.000000pt" height="600.000000pt" viewBox="0 0 600.000000 600.000000"
 preserveAspectRatio="xMidYMid meet">
<metadata>
Created by potrace 1.14, written by Peter Selinger 2001-2017
</metadata>
<g transform="translate(0.000000,600.000000) scale(0.100000,-0.100000)"
fill="#000000" stroke="none">
<path d="M1413 3599 c-37 -11 -52 -45 -37 -87 11 -30 37 -40 117 -41 l57 -1 0
-176 0 -176 -37 32 c-114 101 -316 123 -465 52 -118 -56 -192 -141 -230 -265
-31 -102 -23 -247 19 -337 41 -89 109 -162 188 -201 149 -73 346 -50 462 55
22 20 43 36 46 36 3 0 7 -24 9 -52 l3 -53 120 -3 c113 -3 121 -1 138 19 41 50
13 99 -61 107 l-52 5 0 539 0 538 -26 10 c-32 12 -208 11 -251 -1z m-32 -520
c129 -56 198 -219 154 -366 -31 -104 -110 -177 -217 -199 -235 -49 -413 156
-342 395 15 53 62 114 117 153 70 50 195 57 288 17z"/>
<path d="M2315 3260 c-194 -24 -287 -107 -287 -255 0 -92 30 -149 102 -193 77
-46 104 -52 290 -63 224 -13 267 -36 257 -137 -9 -91 -97 -137 -246 -130 -70
3 -99 10 -152 35 -63 29 -86 50 -132 122 -12 19 -29 39 -38 44 -25 16 -69 0
-79 -29 -16 -40 -12 -219 4 -259 13 -31 19 -35 52 -35 20 0 51 9 68 19 30 19
32 19 121 1 187 -40 368 -20 459 50 101 77 133 218 75 332 -45 88 -136 122
-372 137 -177 12 -224 23 -251 62 -28 41 -21 87 22 129 58 59 150 75 259 46
68 -18 106 -42 173 -110 44 -45 61 -56 87 -56 46 0 53 21 53 149 0 86 -3 113
-16 125 -20 21 -67 20 -107 0 -29 -15 -37 -15 -102 -1 -93 21 -167 26 -240 17z"/>
<path d="M4713 3260 c-50 -11 -116 -43 -165 -82 l-38 -30 0 34 c0 53 -12 58
-135 58 -124 0 -135 -5 -135 -61 0 -45 15 -59 77 -67 l48 -7 0 -295 0 -295
-48 -7 c-61 -8 -77 -22 -77 -64 0 -60 12 -64 199 -64 188 0 196 3 194 67 -1
46 -12 55 -72 61 l-51 5 0 218 c0 120 4 229 10 243 15 41 82 108 129 129 53
23 146 25 188 3 41 -21 80 -69 93 -114 5 -20 10 -137 10 -258 l0 -221 -51 -5
c-28 -3 -55 -12 -60 -19 -13 -20 -11 -83 3 -97 8 -8 63 -12 180 -12 157 0 169
1 189 21 16 16 20 28 15 52 -9 43 -16 48 -77 55 l-54 7 -3 258 c-3 290 -10
326 -77 404 -58 68 -187 105 -292 83z"/>
<path d="M3508 2690 c-102 -30 -147 -143 -98 -240 28 -54 85 -82 165 -82 69 0
110 17 148 61 50 60 44 163 -14 219 -45 44 -133 63 -201 42z"/>
</g>
</svg>
