<?xml version="1.0" standalone="no"?>
<!DOCTYPE svg PUBLIC "-//W3C//DTD SVG 20010904//EN"
 "http://www.w3.org/TR/2001/REC-SVG-20010904/DTD/svg10.dtd">
<svg version="1.0" xmlns="http://www.w3.org/2000/svg"
 width="1000.000000pt" height="1000.000000pt" viewBox="0 0 1000.000000 1000.000000"
 preserveAspectRatio="xMidYMid meet">
<metadata>
Created by potrace 1.14, written by Peter Selinger 2001-2017
</metadata>
<g transform="translate(0.000000,1000.000000) scale(0.100000,-0.100000)"
fill="#000000" stroke="none">
<path d="M5018 8130 c-159 -19 -221 -95 -235 -286 -3 -46 -1 -110 6 -149 20
-111 57 -166 136 -202 36 -16 89 -18 595 -23 l555 -5 3 -1052 c1 -579 -1
-1053 -6 -1053 -4 0 -39 37 -77 82 -121 141 -307 297 -476 399 -302 182 -600
259 -999 259 -877 0 -1556 -429 -1900 -1199 -87 -195 -139 -385 -177 -636 -25
-171 -25 -639 0 -810 77 -515 275 -932 596 -1254 301 -304 664 -483 1126 -558
130 -21 439 -28 576 -14 364 38 680 169 989 410 101 78 266 241 335 330 l50
64 6 -244 c7 -263 16 -311 64 -375 66 -86 153 -97 713 -92 457 5 479 8 545 74
56 57 72 116 72 269 -1 113 -4 137 -24 181 -26 61 -61 96 -116 121 -34 15 -78
19 -300 23 l-260 5 -5 2775 -5 2775 -28 57 c-31 63 -65 92 -135 116 -41 14
-141 16 -802 18 -415 1 -785 -2 -822 -6z m-308 -2760 c239 -19 406 -63 605
-161 269 -133 470 -336 602 -608 73 -151 118 -306 143 -494 13 -101 13 -393 0
-494 -93 -698 -547 -1156 -1245 -1253 -104 -14 -370 -14 -465 0 -531 80 -891
387 -1065 906 -69 207 -100 471 -84 732 40 649 362 1123 884 1300 142 48 234
64 470 81 11 0 81 -4 155 -9z"/>
</g>
</svg>
